<?xml version="1.0" standalone="no"?>
<!DOCTYPE svg PUBLIC "-//W3C//DTD SVG 20010904//EN"
 "http://www.w3.org/TR/2001/REC-SVG-20010904/DTD/svg10.dtd">
<svg version="1.0" xmlns="http://www.w3.org/2000/svg"
 width="721.000000pt" height="378.000000pt" viewBox="0 0 721.000000 378.000000"
 preserveAspectRatio="xMidYMid meet">

<g transform="translate(0.000000,378.000000) scale(0.100000,-0.100000)"
fill="#000000" stroke="none">
<path d="M0 1890 l0 -1890 3605 0 3605 0 0 1890 0 1890 -3605 0 -3605 0 0
-1890z m1110 120 l0 -110 80 0 80 0 0 110 0 110 70 0 70 0 0 -275 0 -275 -70
0 -70 0 0 110 0 110 -80 0 -80 0 0 -110 0 -110 -65 0 -65 0 0 275 0 275 65 0
65 0 0 -110z m720 96 c0 -7 9 -16 20 -19 19 -5 20 -14 20 -241 0 -229 -1 -236
-20 -236 -13 0 -20 -7 -20 -20 0 -19 -7 -20 -175 -20 -153 0 -175 2 -175 16 0
9 -9 18 -20 21 -19 5 -20 14 -20 244 0 232 1 239 20 239 11 0 20 7 20 15 0 13
26 15 175 15 142 0 175 -3 175 -14z m200 -1 c0 -8 9 -15 20 -15 17 0 20 -7 20
-40 0 -33 3 -40 20 -40 16 0 20 -7 20 -35 0 -28 4 -35 20 -35 17 0 20 -7 20
-40 0 -29 4 -40 15 -40 8 0 15 -7 15 -15 0 -8 5 -15 10 -15 6 0 10 55 10 145
l0 145 65 0 65 0 0 -275 0 -275 -65 0 c-58 0 -65 2 -65 20 0 13 -7 20 -20 20
-16 0 -20 7 -20 35 0 28 -4 35 -20 35 -16 0 -20 7 -20 35 0 24 -5 35 -15 35
-11 0 -15 11 -15 40 0 33 -3 40 -20 40 -11 0 -20 7 -20 15 0 8 -4 15 -10 15
-6 0 -10 -55 -10 -145 l0 -145 -65 0 -65 0 0 275 0 275 65 0 c51 0 65 -3 65
-15z m460 -95 l0 -110 80 0 80 0 0 110 0 110 70 0 70 0 0 -126 c0 -117 -1
-126 -20 -131 -11 -3 -20 -12 -20 -19 0 -8 9 -14 20 -14 19 0 20 -7 20 -130
l0 -130 -70 0 -70 0 0 110 0 110 -80 0 -80 0 0 -110 0 -110 -65 0 -65 0 0 275
0 275 65 0 65 0 0 -110z m950 55 l0 -55 -70 0 -70 0 0 -220 0 -220 -70 0 -70
0 0 220 0 220 -70 0 -70 0 0 55 0 55 210 0 210 0 0 -55z m420 41 c0 -7 9 -16
20 -19 18 -5 20 -14 20 -112 0 -98 -2 -107 -20 -112 -11 -3 -20 -12 -20 -19 0
-8 9 -14 20 -14 19 0 20 -7 20 -130 l0 -130 -70 0 -70 0 0 110 0 110 -80 0
-80 0 0 -110 0 -110 -65 0 -65 0 0 275 0 275 195 0 c159 0 195 -3 195 -14z
m460 0 c0 -7 9 -16 20 -19 19 -5 20 -14 20 -241 0 -229 -1 -236 -20 -236 -13
0 -20 -7 -20 -20 0 -19 -7 -20 -175 -20 -153 0 -175 2 -175 16 0 9 -9 18 -20
21 -19 5 -20 14 -20 244 0 232 1 239 20 239 11 0 20 7 20 15 0 13 26 15 175
15 142 0 175 -3 175 -14z m460 0 c0 -7 9 -16 20 -19 19 -5 20 -14 20 -241 0
-229 -1 -236 -20 -236 -13 0 -20 -7 -20 -20 0 -19 -7 -20 -175 -20 -153 0
-175 2 -175 16 0 9 -9 18 -20 21 -19 5 -20 14 -20 244 0 232 1 239 20 239 11
0 20 7 20 15 0 13 26 15 175 15 142 0 175 -3 175 -14z m460 0 c0 -7 9 -16 20
-19 19 -5 20 -14 20 -131 0 -119 -1 -126 -20 -126 -13 0 -20 -7 -20 -20 0 -19
-7 -20 -130 -20 l-130 0 0 -110 0 -110 -65 0 -65 0 0 275 0 275 195 0 c159 0
195 -3 195 -14z m500 -41 l0 -55 -150 0 -150 0 0 -55 0 -55 95 0 95 0 0 -55 0
-55 -95 0 -95 0 0 -55 0 -55 150 0 150 0 0 -55 0 -55 -195 0 c-172 0 -195 2
-195 16 0 9 -9 18 -20 21 -19 5 -20 14 -20 244 0 232 1 239 20 239 11 0 20 7
20 15 0 13 28 15 195 15 l195 0 0 -55z m410 41 c0 -7 9 -16 20 -19 18 -5 20
-14 20 -112 0 -98 -2 -107 -20 -112 -11 -3 -20 -12 -20 -19 0 -8 9 -14 20 -14
19 0 20 -7 20 -130 l0 -130 -70 0 -70 0 0 110 0 110 -80 0 -80 0 0 -110 0
-110 -65 0 -65 0 0 275 0 275 195 0 c159 0 195 -3 195 -14z"/>
<path d="M1570 1845 l0 -165 80 0 80 0 0 165 0 165 -80 0 -80 0 0 -165z"/>
<path d="M3600 1955 l0 -55 80 0 80 0 0 55 0 55 -80 0 -80 0 0 -55z"/>
<path d="M4060 1845 l0 -165 80 0 80 0 0 165 0 165 -80 0 -80 0 0 -165z"/>
<path d="M4520 1845 l0 -165 80 0 80 0 0 165 0 165 -80 0 -80 0 0 -165z"/>
<path d="M4980 1955 l0 -55 80 0 80 0 0 55 0 55 -80 0 -80 0 0 -55z"/>
<path d="M5890 1955 l0 -55 80 0 80 0 0 55 0 55 -80 0 -80 0 0 -55z"/>
</g>
</svg>
